<svg width="18" height="20" viewBox="0 0 18 20" fill="none" xmlns="http://www.w3.org/2000/svg">
<path d="M10.4726 0C4.68574 0 0 4.47768 0 10C0 15.5223 4.68574 20 10.4726 20C13.3122 20 15.8846 18.9196 17.773 17.1696C18.0073 16.9509 18.0682 16.6116 17.9183 16.3348C17.7683 16.058 17.445 15.9018 17.1217 15.9554C16.6625 16.0313 16.1939 16.0714 15.7113 16.0714C11.1708 16.0714 7.48781 12.5536 7.48781 8.21429C7.48781 5.27679 9.17467 2.71875 11.6722 1.37054C11.958 1.21429 12.1033 0.901786 12.033 0.598214C11.9627 0.294643 11.6909 0.0669644 11.3629 0.0401786C11.0677 0.0178572 10.7725 0.00446422 10.4726 0.00446422V0Z" fill="white"/>
</svg>
