<svg width="50" height="50" viewBox="0 0 50 50" fill="none" xmlns="http://www.w3.org/2000/svg">
<path d="M25 50C38.8071 50 50 38.8071 50 25C50 11.1929 38.8071 0 25 0C11.1929 0 0 11.1929 0 25C0 38.8071 11.1929 50 25 50ZM22.5708 23.6999L31.9458 17.4499C32.2071 17.276 32.5096 17.1875 32.8125 17.1875C33.0654 17.1875 33.3187 17.2485 33.5499 17.3722C34.058 17.6445 34.375 18.174 34.375 18.75V31.25C34.375 31.826 34.058 32.3555 33.5499 32.6278C33.0418 32.8986 32.4253 32.8704 31.9458 32.55L22.5708 26.3C22.1359 26.0102 21.875 25.5227 21.875 25C21.875 24.4773 22.1359 23.9898 22.5708 23.6999ZM14.0625 18.75C14.0625 17.8871 14.7621 17.1875 15.625 17.1875H17.1875C18.0504 17.1875 18.75 17.8871 18.75 18.75V31.25C18.75 32.1129 18.0504 32.8125 17.1875 32.8125H15.625C14.7621 32.8125 14.0625 32.1129 14.0625 31.25L14.0625 18.75Z" fill="white" fill-opacity="0.25"/>
</svg>
