<svg width="50" height="50" viewBox="0 0 50 50" fill="none" xmlns="http://www.w3.org/2000/svg">
<path d="M25 0C11.1929 0 0 11.1929 0 25C0 38.8071 11.1929 50 25 50C38.8071 50 50 38.8071 50 25C50 11.1929 38.8071 0 25 0ZM27.4292 26.3001L18.0542 32.5501C17.7929 32.724 17.4904 32.8125 17.1875 32.8125C16.9346 32.8125 16.6813 32.7515 16.4501 32.6278C15.942 32.3555 15.625 31.826 15.625 31.25V18.75C15.625 18.174 15.942 17.6445 16.4501 17.3722C16.9582 17.1014 17.5747 17.1296 18.0542 17.45L27.4292 23.7C27.8641 23.9898 28.125 24.4773 28.125 25C28.125 25.5227 27.8641 26.0102 27.4292 26.3001ZM35.9375 31.25C35.9375 32.1129 35.2379 32.8125 34.375 32.8125H32.8125C31.9496 32.8125 31.25 32.1129 31.25 31.25V18.75C31.25 17.8871 31.9496 17.1875 32.8125 17.1875H34.375C35.2379 17.1875 35.9375 17.8871 35.9375 18.75V31.25Z" fill="white" fill-opacity="0.25"/>
</svg>
